<svg width="36" height="36" viewBox="0 0 36 36" fill="none" xmlns="http://www.w3.org/2000/svg">
<path d="M23.3904 33.303V29.0808L16.5926 27.6735L18 33.303H23.3904Z" fill="#9ABADB"/>
<path d="M12.6096 33.303H18V27.6735L12.6096 29.0808V33.303Z" fill="#D1E8FF"/>
<path d="M36 22.7477L16.5926 21.3403L18 29.0809H36V22.7477Z" fill="#D1E8FF"/>
<path d="M0 22.7477V29.0809H18V21.3403L0 22.7477Z" fill="#F5F5FF"/>
<path d="M26.557 32.2484H18L17.2963 33.3031L18 34.3578H26.557V32.2484Z" fill="#D1E8FF"/>
<path d="M18 32.248H9.44297V34.3574H18V32.248Z" fill="#F5F5FF"/>
<path d="M36 1.64221H18L16.5926 12.195L18 22.7478H36V1.64221Z" fill="#294B6E"/>
<path d="M18 1.64221H0V22.7479H18V1.64221Z" fill="#6283A3"/>
<path d="M12.5738 17.783L6.98582 12.1949L12.5738 6.60693L14.0654 8.09847L9.9689 12.1949L14.0654 16.2914L12.5738 17.783Z" fill="#F5F5FF"/>
<path d="M23.4262 17.783L21.9346 16.2914L26.0311 12.1949L21.9346 8.09847L23.4262 6.60693L29.0142 12.1949L23.4262 17.783Z" fill="#D1E8FF"/>
<path d="M15.6648 18.5277L17.7337 18.9392L20.3349 5.86233L18.266 5.4508L15.6648 18.5277Z" fill="#D1E8FF"/>
</svg>
