<svg width="36" height="29" viewBox="0 0 36 29" fill="none" xmlns="http://www.w3.org/2000/svg">
<path d="M21.0581 28.4336H14.73V23.5625H21.0581V28.4336ZM16.8394 27.3008H18.9487V25.2617H16.8394V27.3008Z" fill="#8B8992"/>
<path d="M17.9995 25.2617H18.9487V27.3008H17.9995V28.4336H21.0581V23.5625H17.9995V25.2617Z" fill="#57555C"/>
<path d="M33.7847 21.2969H2.21436V7.70312H33.7847V21.2969Z" fill="#9BC9FF"/>
<path d="M33.7844 7.70312H17.9993V21.2969H33.7844V7.70312Z" fill="#009AE5"/>
<path d="M23.1673 27.3008H12.6204V29H23.1673V27.3008Z" fill="#005ECE"/>
<path d="M16.8394 21.2969H10.5112V9.68555H16.8394V21.2969Z" fill="#B87FD9"/>
<path d="M16.8394 21.2969H13.6753V9.68555H16.8394V21.2969Z" fill="#8034AD"/>
<path d="M20.3685 7.41992H6.91179L4.17586 0H8.20075C9.63787 0 11.3105 0.41427 12.6206 1.16125V0H23.1044L20.3685 7.41992Z" fill="#8B8992"/>
<path d="M23.1044 0H13.6401V7.41992H20.3686L23.1044 0Z" fill="#57555C"/>
<path d="M17.4722 11.3848H9.87842C8.13375 11.3848 6.71436 10.2414 6.71436 8.83594V5.7207H20.6362V8.83594C20.6362 10.2414 19.2168 11.3848 17.4722 11.3848Z" fill="#E3CEF0"/>
<path d="M13.6753 5.7207V11.3848H17.4722C19.2168 11.3848 20.6362 10.2414 20.6362 8.83594V5.7207H13.6753Z" fill="#D5B4E8"/>
<path d="M30.073 6.70324C29.431 6.70324 28.7975 6.56764 28.2265 6.30211C27.3695 5.90347 26.7564 5.25986 26.5003 4.48978C26.2441 3.71975 26.3756 2.91545 26.8704 2.22506C27.3653 1.53467 28.1642 1.04082 29.1202 0.834477L32.699 0.0620117L33.6578 2.94491C33.914 3.71494 33.7826 4.51923 33.2877 5.20962C32.7928 5.90002 31.9939 6.39392 31.038 6.60021C30.7188 6.66914 30.3948 6.70324 30.073 6.70324Z" fill="#E0E0E2"/>
<path d="M33.6577 2.94491L32.6989 0.0620117H32.6988L28.2265 6.30205C28.7975 6.56758 29.431 6.70324 30.073 6.70318C30.3948 6.70318 30.7188 6.66908 31.038 6.60021C31.9939 6.39387 32.7928 5.90002 33.2877 5.20963C33.7825 4.51923 33.9139 3.71494 33.6577 2.94491Z" fill="#ACABB1"/>
<path d="M19.7518 23.2241L14.2715 20.6753L23.0606 8.41223L28.5409 10.9611L19.7518 23.2241Z" fill="#FFE477"/>
<path d="M17.0116 21.9495L19.7516 23.2239L28.5405 10.9614L25.8005 9.68704L17.0116 21.9495Z" fill="#FFA733"/>
<path d="M28.2981 12.8103L21.194 9.50625L27.3161 3.9165L31.2464 5.74447L28.2981 12.8103Z" fill="#FF9A00"/>
<path d="M31.2464 5.74452L29.2812 4.83057L24.7461 11.1583L28.2981 12.8103L31.2464 5.74452Z" fill="#E67500"/>
<path d="M33.7847 25.2617H2.21436V19.5977H33.7847V25.2617Z" fill="#005ECE"/>
<path d="M33.7844 19.5977H17.9993V25.2617H33.7844V19.5977Z" fill="#003F8A"/>
<path d="M23.1673 27.3008H17.8938V29H23.1673V27.3008Z" fill="#003F8A"/>
</svg>
