<svg width="13" height="14" viewBox="0 0 13 14" fill="none" xmlns="http://www.w3.org/2000/svg">
<path d="M4.66667 12.0025C1.33333 13.0013 1.33333 10.338 0 10.0051L4.66667 12.0025ZM9.33333 14V11.4233C9.35834 11.1058 9.31539 10.7866 9.20734 10.487C9.09929 10.1874 8.92862 9.91416 8.70667 9.68551C10.8 9.45247 13 8.66015 13 5.02479C12.9998 4.09519 12.6418 3.20124 12 2.52797C12.3039 1.71468 12.2824 0.815721 11.94 0.0178393C11.94 0.0178393 11.1533 -0.215197 9.33333 1.00325C7.80534 0.589658 6.19466 0.589658 4.66667 1.00325C2.84667 -0.215197 2.06 0.0178393 2.06 0.0178393C1.71758 0.815721 1.6961 1.71468 2 2.52797C1.35342 3.20624 0.995015 4.10826 1 5.04476C1 8.65349 3.2 9.44581 5.29333 9.70548C5.074 9.93184 4.90484 10.2018 4.79687 10.4977C4.6889 10.7937 4.64454 11.1091 4.66667 11.4233V14" fill="white"/>
</svg>
